<?xml version="1.0" encoding="UTF-8"?>
<svg xmlns="http://www.w3.org/2000/svg" width="512" height="512" viewBox="0 0 512 512">
  <defs>
    <radialGradient id="bg" cx="50%" cy="45%" r="70%">
      <stop offset="0%" stop-color="#5a2a86"/>
      <stop offset="100%" stop-color="#3a165d"/>
    </radialGradient>
    <linearGradient id="gold" x1="0" y1="0" x2="0" y2="1">
      <stop offset="0%" stop-color="#ffd27d"/>
      <stop offset="55%" stop-color="#f5b942"/>
      <stop offset="100%" stop-color="#d9971e"/>
    </linearGradient>
  </defs>

  <!-- Purple coin -->
  <circle cx="256" cy="256" r="248" fill="url(#bg)"/>

  <!-- Gold ring -->
  <circle cx="256" cy="256" r="176" fill="none" stroke="url(#gold)" stroke-width="36"/>

  <!-- Stylized Pi glyph (clean + readable at small sizes) -->
  <g fill="url(#gold)">
    <!-- top dots -->
    <rect x="186" y="190" width="56" height="44" rx="10"/>
    <rect x="270" y="190" width="56" height="44" rx="10"/>

    <!-- left stem -->
    <path d="M214 248c-18 0-33 15-33 33v94c0 18 15 33 33 33h14c18 0 33-15 33-33v-94c0-18-15-33-33-33h-14zm14 40v88h-7c-0.6 0-1-0.4-1-1v-86c0-0.6 0.4-1 1-1h7z"/>

    <!-- right stem + cap -->
    <path d="M317 248h-14c-18 0-33 15-33 33v58c0 18 15 33 33 33h48c18 0 33-15 33-33v-14h-40v7c0 0.6-0.4 1-1 1h-34c-0.6 0-1-0.4-1-1v-50c0-0.6 0.4-1 1-1h8c0.6 0 1 0.4 1 1v9h40v-17c0-18-15-33-33-33z"/>

    <!-- center bridge -->
    <rect x="200" y="240" width="156" height="40" rx="16"/>
  </g>
</svg>
